<svg xmlns="http://www.w3.org/2000/svg" viewBox="0 0 256 256">
  <defs>
    <linearGradient id="g" x1="0" x2="1" y1="0" y2="1">
      <stop offset="0" stop-color="#f5d06f"/>
      <stop offset="1" stop-color="#7c3aed"/>
    </linearGradient>
    <filter id="glow" x="-50%" y="-50%" width="200%" height="200%">
      <feGaussianBlur stdDeviation="6" result="b"/>
      <feMerge>
        <feMergeNode in="b"/>
        <feMergeNode in="SourceGraphic"/>
      </feMerge>
    </filter>
  </defs>
  <rect width="256" height="256" rx="56" fill="#0b0f1a"/>
  <path d="M72 92c0-12 10-22 22-22h68c12 0 22 10 22 22v22c0 44-28 82-56 82s-56-38-56-82V92z" fill="url(#g)" opacity="0.92"/>
  <path d="M86 122h84c0 30-19 56-42 56s-42-26-42-56z" fill="#0b0f1a" opacity="0.52"/>
  <path d="M106 52c0-10 10-20 20-20 0 15-10 20-20 32 0-4 0-9 0-12z" fill="#e8e8f3" opacity="0.7" filter="url(#glow)"/>
  <path d="M150 52c0-10 10-20 20-20 0 15-10 20-20 32 0-4 0-9 0-12z" fill="#e8e8f3" opacity="0.6" filter="url(#glow)"/>
</svg>

